<svg width="1200" height="720" viewBox="0 0 1200 720" fill="none" xmlns="http://www.w3.org/2000/svg">
  <rect width="1200" height="720" fill="#F6FAF7"/>
  <rect x="42" y="42" width="1116" height="636" stroke="#D7DED9" stroke-width="4"/>
  <rect x="92" y="104" width="470" height="512" fill="#FFFFFF" stroke="#12372A" stroke-width="4"/>
  <rect x="140" y="160" width="220" height="18" fill="#12372A"/>
  <rect x="140" y="204" width="320" height="10" fill="#D7DED9"/>
  <rect x="140" y="236" width="290" height="10" fill="#D7DED9"/>
  <rect x="140" y="268" width="260" height="10" fill="#D7DED9"/>
  <rect x="140" y="330" width="170" height="130" fill="#EEF5F0" stroke="#1F5D45" stroke-width="4"/>
  <path d="M214 375L248 409L298 353" stroke="#1F5D45" stroke-width="12" stroke-linecap="square"/>
  <rect x="340" y="330" width="150" height="18" fill="#12372A"/>
  <rect x="340" y="366" width="120" height="10" fill="#D7DED9"/>
  <rect x="340" y="394" width="132" height="10" fill="#D7DED9"/>
  <rect x="340" y="422" width="110" height="10" fill="#D7DED9"/>
  <rect x="690" y="144" width="336" height="212" fill="#12372A"/>
  <rect x="734" y="188" width="248" height="10" fill="#FFFFFF" fill-opacity="0.75"/>
  <rect x="734" y="226" width="198" height="10" fill="#FFFFFF" fill-opacity="0.55"/>
  <rect x="734" y="264" width="150" height="10" fill="#D97706"/>
  <rect x="650" y="392" width="420" height="140" fill="#FFFFFF" stroke="#12372A" stroke-width="4"/>
  <circle cx="736" cy="462" r="40" fill="#EEF5F0" stroke="#1F5D45" stroke-width="4"/>
  <path d="M736 442V470H758" stroke="#1F5D45" stroke-width="10" stroke-linecap="square"/>
  <rect x="798" y="430" width="210" height="14" fill="#12372A"/>
  <rect x="798" y="464" width="162" height="10" fill="#D7DED9"/>
  <rect x="798" y="494" width="184" height="10" fill="#D7DED9"/>
</svg>
