<svg width="1200" height="720" viewBox="0 0 1200 720" fill="none" xmlns="http://www.w3.org/2000/svg">
  <rect width="1200" height="720" fill="#F6FAF7"/>
  <rect x="48" y="48" width="1104" height="624" stroke="#D7DED9" stroke-width="4"/>
  <rect x="104" y="428" width="992" height="84" fill="#12372A"/>
  <rect x="152" y="318" width="410" height="110" fill="#FFFFFF" stroke="#12372A" stroke-width="4"/>
  <rect x="562" y="262" width="282" height="166" fill="#1F5D45"/>
  <rect x="844" y="298" width="180" height="130" fill="#D97706"/>
  <rect x="202" y="250" width="190" height="68" fill="#EEF5F0" stroke="#12372A" stroke-width="4"/>
  <circle cx="270" cy="552" r="48" fill="#111827"/>
  <circle cx="270" cy="552" r="22" fill="#EEF5F0"/>
  <circle cx="930" cy="552" r="48" fill="#111827"/>
  <circle cx="930" cy="552" r="22" fill="#EEF5F0"/>
  <path d="M110 238H202" stroke="#12372A" stroke-width="8" stroke-linecap="square"/>
  <path d="M174 196L218 240L174 284" stroke="#12372A" stroke-width="8" stroke-linecap="square"/>
  <rect x="734" y="170" width="240" height="54" fill="#FFFFFF" stroke="#12372A" stroke-width="4"/>
  <rect x="770" y="190" width="84" height="12" fill="#12372A"/>
  <rect x="874" y="190" width="60" height="12" fill="#D7DED9"/>
</svg>
